<svg xmlns="http://www.w3.org/2000/svg" viewBox="0 0 16 16" width="64" height="64" shape-rendering="crispEdges">
  <!-- planted-forest-growing -->
  <rect x="1" y="11" width="1" height="3" fill="#5a3212"/>
  <rect x="1" y="7" width="2" height="1" fill="#1e4820"/>
  <rect x="0" y="8" width="4" height="4" fill="#1e4820"/>
  <rect x="1" y="9" width="2" height="2" fill="#2a6828"/>
  <rect x="2" y="8" width="1" height="1" fill="#3a8838"/>
  <rect x="5" y="11" width="1" height="3" fill="#5a3212"/>
  <rect x="5" y="5" width="2" height="1" fill="#1e4820"/>
  <rect x="4" y="6" width="4" height="6" fill="#1e4820"/>
  <rect x="5" y="7" width="2" height="3" fill="#2a6828"/>
  <rect x="6" y="6" width="1" height="2" fill="#3a8838"/>
  <rect x="9" y="11" width="1" height="3" fill="#5a3212"/>
  <rect x="9" y="6" width="2" height="1" fill="#1e4820"/>
  <rect x="8" y="7" width="4" height="5" fill="#1e4820"/>
  <rect x="9" y="8" width="2" height="3" fill="#2a6828"/>
  <rect x="10" y="7" width="1" height="2" fill="#3a8838"/>
  <rect x="13" y="11" width="1" height="3" fill="#5a3212"/>
  <rect x="13" y="5" width="2" height="1" fill="#1e4820"/>
  <rect x="12" y="6" width="4" height="6" fill="#1e4820"/>
  <rect x="13" y="7" width="2" height="3" fill="#2a6828"/>
  <rect x="14" y="6" width="1" height="2" fill="#3a8838"/>
</svg>
