<svg xmlns="http://www.w3.org/2000/svg" viewBox="0 0 16 16" width="32" height="32" shape-rendering="crispEdges">
  <!-- icon-research: round-bottom (Florence-style) blue flask with cork stopper -->
  <rect x="6" y="0" width="4" height="1" fill="#6b4128"/>
  <rect x="5" y="1" width="6" height="1" fill="#9c6a42"/>
  <rect x="7" y="2" width="2" height="1" fill="#dceef5"/>
  <rect x="7" y="3" width="2" height="1" fill="#dceef5"/>
  <rect x="7" y="4" width="2" height="1" fill="#a8d4e6"/>
  <rect x="7" y="2" width="1" height="1" fill="#f0f8fc"/>
  <rect x="6" y="5" width="4" height="1" fill="#16324a"/>
  <rect x="5" y="6" width="6" height="1" fill="#16324a"/>
  <rect x="3" y="7" width="10" height="1" fill="#16324a"/>
  <rect x="2" y="8" width="12" height="4" fill="#16324a"/>
  <rect x="3" y="12" width="10" height="1" fill="#16324a"/>
  <rect x="5" y="13" width="6" height="1" fill="#16324a"/>
  <rect x="6" y="14" width="4" height="1" fill="#16324a"/>
  <rect x="7" y="5" width="2" height="1" fill="#1a5070"/>
  <rect x="6" y="6" width="4" height="1" fill="#1a5070"/>
  <rect x="4" y="7" width="8" height="1" fill="#1a5070"/>
  <rect x="3" y="8" width="10" height="4" fill="#1a5070"/>
  <rect x="4" y="12" width="8" height="1" fill="#1a5070"/>
  <rect x="6" y="13" width="4" height="1" fill="#1a5070"/>
  <rect x="7" y="14" width="2" height="1" fill="#1a5070"/>
  <rect x="4" y="8" width="2" height="3" fill="#5aa0b8"/>
</svg>
